#!OML:ASF E:\VariousWalksJay\Project 1\Capture day 1\Session 1\Actor2.ASF
:FULLY-SPECIFIED
:DEGREES
1469
root -5.04312 17.3539 -13.0393 361.894 -20.8406 -365.948
lowerback -1.80779 -1.14556 2.12831
upperback 4.88972 -1.53781 -2.28478
thorax 5.97381 -0.608172 -3.68193
lowerneck -6.74468 -8.17373 -9.66392
upperneck 5.86153 -11.7 17.9207
head 4.53849 -5.32502 6.33187
rclavicle 3.16068e-014 4.6118e-014
rhumerus -29.5252 4.77472 -90.0885
rradius 37.4094
rwrist -2.81274
rhand -10.9567 -5.29623
rfingers 7.12502
rthumb 15.0622 -34.7283
lclavicle 3.16068e-014 4.6118e-014
lhumerus -9.30109 -6.95914 78.9251
lradius 21.4974
lwrist 5.23824
lhand -10.6016 -11.4874
lfingers 7.12502
lthumb 15.4043 17.9186
rfemur -22.0104 0.108324 23.998
rtibia 55.8716
rfoot -19.8269 -17.4557
rtoes -11.1433
lfemur -11.2845 13.6376 -17.8085
ltibia 34.5932
lfoot -24.1904 4.54462
ltoes -3.4692
1470
root -5.05131 17.3435 -12.9596 361.776 -20.7137 -365.917
lowerback -1.71376 -1.2134 2.06235
upperback 4.95511 -1.62568 -2.26123
thorax 5.98406 -0.654802 -3.62453
lowerneck -6.87364 -8.14071 -9.57804
upperneck 6.11487 -11.6811 17.8267
head 4.62195 -5.3017 6.28417
rclavicle -7.63333e-014 -1.59028e-014
rhumerus -29.566 4.68572 -90.0348
rradius 37.3942
rwrist -2.79488
rhand -11.0132 -5.27009
rfingers 7.12502
rthumb 15.0078 -34.7062
lclavicle -7.63333e-014 -1.59028e-014
lhumerus -9.07157 -7.72353 78.9834
lradius 22.1171
lwrist 5.76358
lhand -10.565 -11.4698
lfingers 7.12502
lthumb 15.4395 17.9335
rfemur -22.6942 0.391132 24.183
rtibia 55.1817
rfoot -20.0249 -17.395
rtoes -11.4463
lfemur -10.8713 13.4679 -17.8437
ltibia 34.6008
lfoot -24.4578 4.6522
ltoes -3.58592
1471
root -5.05975 17.3351 -12.8793 361.657 -20.5962 -365.874
lowerback -1.61808 -1.27743 1.99427
upperback 5.01454 -1.70817 -2.24293
thorax 5.98767 -0.698962 -3.57077
lowerneck -7.00325 -8.09874 -9.48039
upperneck 6.38569 -11.651 17.7123
head 4.70724 -5.27283 6.22919
rclavicle -2.0276e-014 -2.70347e-014
rhumerus -29.6066 4.58048 -89.9844
rradius 37.3338
rwrist -2.75712
rhand -11.0643 -5.2437
rfingers 7.12502
rthumb 14.9586 -34.6835
lclavicle -2.0276e-014 -2.70347e-014
lhumerus -8.8809 -8.45872 79.0376
lradius 22.7568
lwrist 6.26539
lhand -10.5487 -11.4404
lfingers 7.12502
lthumb 15.4552 17.9618
rfemur -23.3554 0.662464 24.3459
rtibia 54.4557
rfoot -20.1649 -17.2933
rtoes -11.7632
lfemur -10.4227 13.3063 -17.8921
ltibia 34.5438
lfoot -24.7006 4.7576
ltoes -3.70183
1472
root -5.06848 17.3286 -12.7983 361.535 -20.4853 -365.818
lowerback -1.52459 -1.33583 1.9263
upperback 5.07307 -1.78295 -2.23069
thorax 5.99226 -0.739168 -3.52287
lowerneck -7.14434 -8.05119 -9.37457
upperneck 6.67077 -11.6137 17.5839
head 4.79661 -5.23977 6.16886
rclavicle -5.18828e-014 -1.74931e-014
rhumerus -29.6365 4.44333 -89.9317
rradius 37.2247
rwrist -2.6987
rhand -11.105 -5.21285
rfingers 7.12502
rthumb 14.9194 -34.6556
lclavicle -5.18828e-014 -1.74931e-014
lhumerus -8.71593 -9.18314 79.0904
lradius 23.4057
lwrist 6.75094
lhand -10.5492 -11.4063
lfingers 7.12502
lthumb 15.4547 17.9959
rfemur -23.9904 0.918473 24.4865
rtibia 53.6917
rfoot -20.2575 -17.1589
rtoes -12.051
lfemur -9.93847 13.1546 -17.9535
ltibia 34.421
lfoot -24.911 4.85991
ltoes -3.84359
1473
root -5.07742 17.3238 -12.7166 361.413 -20.3855 -365.751
lowerback -1.43285 -1.38873 1.86091
upperback 5.12696 -1.85038 -2.22321
thorax 5.99352 -0.775621 -3.48078
lowerneck -7.2856 -7.99501 -9.26145
upperneck 6.96845 -11.5652 17.4402
head 4.88705 -5.20124 6.10375
rclavicle 9.93923e-015 -7.95139e-015
rhumerus -29.6663 4.28494 -89.8783
rradius 37.0737
rwrist -2.62823
rhand -11.135 -5.18586
rfingers 7.12502
rthumb 14.8905 -34.6307
lclavicle 9.93923e-015 -7.95139e-015
lhumerus -8.58161 -9.87004 79.1448
lradius 24.0518
lwrist 7.19549
lhand -10.5771 -11.3858
lfingers 7.12502
lthumb 15.4279 18.0185
rfemur -24.5998 1.16107 24.6099
rtibia 52.8896
rfoot -20.3073 -17.0092
rtoes -12.3274
lfemur -9.42256 13.0099 -18.0262
ltibia 34.2369
lfoot -25.0957 4.96275
ltoes -3.98332
1474
root -5.08657 17.3205 -12.6345 361.291 -20.2912 -365.672
lowerback -1.34521 -1.43854 1.79326
upperback 5.17837 -1.91345 -2.22062
thorax 5.99493 -0.809945 -3.44225
lowerneck -7.4301 -7.92999 -9.1441
upperneck 7.27177 -11.5043 17.2885
head 4.97762 -5.15672 6.0367
rclavicle -8.52786e-014 -1.74931e-014
rhumerus -29.6875 4.10421 -89.8248
rradius 36.8784
rwrist -2.55061
rhand -11.1599 -5.15573
rfingers 7.12502
rthumb 14.8664 -34.6024
lclavicle -8.52786e-014 -1.74931e-014
lhumerus -8.46754 -10.5006 79.2028
lradius 24.6786
lwrist 7.5836
lhand -10.6325 -11.3944
lfingers 7.12502
lthumb 15.3745 18.014
rfemur -25.1858 1.38304 24.7137
rtibia 52.0515
rfoot -20.3311 -16.853
rtoes -12.549
lfemur -8.88261 12.8734 -18.1133
ltibia 33.9982
lfoot -25.2563 5.06065
ltoes -4.11816
1475
root -5.09587 17.3183 -12.5518 361.173 -20.2058 -365.582
lowerback -1.26439 -1.48191 1.73015
upperback 5.23016 -1.96798 -2.22376
thorax 6.00116 -0.839585 -3.41194
lowerneck -7.58934 -7.85952 -9.01621
upperneck 7.58429 -11.436 17.1248
head 5.07153 -5.10785 5.96455
rclavicle -1.76918e-014 3.81667e-014
rhumerus -29.708 3.90593 -89.7695
rradius 36.6593
rwrist -2.47775
rhand -11.1774 -5.13953
rfingers 7.12502
rthumb 14.8496 -34.5874
lclavicle -1.76918e-014 3.81667e-014
lhumerus -8.36163 -11.1114 79.263
lradius 25.2787
lwrist 7.94651
lhand -10.7168 -11.4269
lfingers 7.12502
lthumb 15.2933 17.9877
rfemur -25.7493 1.58254 24.8029
rtibia 51.179
rfoot -20.3306 -16.7041
rtoes -12.7305
lfemur -8.32384 12.7461 -18.2126
ltibia 33.714
lfoot -25.3939 5.15718
ltoes -4.25042
1476
root -5.10523 17.3169 -12.4686 361.058 -20.123 -365.481
lowerback -1.1898 -1.52157 1.66795
upperback 5.28305 -2.01748 -2.23185
thorax 6.01243 -0.866475 -3.38721
lowerneck -7.76496 -7.78346 -8.8802
upperneck 7.90121 -11.3594 16.953
head 5.16798 -5.0543 5.88894
rclavicle 9.12422e-014 3.18055e-015
rhumerus -29.7221 3.69197 -89.7116
rradius 36.4141
rwrist -2.40569
rhand -11.1868 -5.12823
rfingers 7.12502
rthumb 14.8406 -34.5768
lclavicle 9.12422e-014 3.18055e-015
lhumerus -8.26131 -11.6706 79.3297
lradius 25.8434
lwrist 8.26262
lhand -10.8209 -11.4888
lfingers 7.12502
lthumb 15.193 17.9334
rfemur -26.2922 1.74764 24.8766
rtibia 50.2751
rfoot -20.3115 -16.5715
rtoes -12.8862
lfemur -7.75369 12.6284 -18.3265
ltibia 33.393
lfoot -25.511 5.25123
ltoes -4.385
1477
root -5.11474 17.316 -12.385 360.947 -20.0366 -365.374
lowerback -1.11824 -1.55757 1.61083
upperback 5.33406 -2.06224 -2.24259
thorax 6.02365 -0.890735 -3.36785
lowerneck -7.94093 -7.70303 -8.73381
upperneck 8.21437 -11.2761 16.772
head 5.2618 -4.99793 5.80956
rclavicle -5.78463e-014 1.90833e-014
rhumerus -29.7413 3.45984 -89.6502
rradius 36.1503
rwrist -2.33202
rhand -11.1883 -5.13363
rfingers 7.12502
rthumb 14.8391 -34.5823
lclavicle -5.78463e-014 1.90833e-014
lhumerus -8.1673 -12.1862 79.4073
lradius 26.3579
lwrist 8.54225
lhand -10.9353 -11.5917
lfingers 7.12502
lthumb 15.0828 17.8388
rfemur -26.8125 1.86949 24.9447
rtibia 49.3412
rfoot -20.2853 -16.4582
rtoes -12.9933
lfemur -7.17533 12.5099 -18.4486
ltibia 33.0427
lfoot -25.6093 5.34842
ltoes -4.52842
1478
root -5.1243 17.3155 -12.3006 360.839 -19.9449 -365.263
lowerback -1.05311 -1.58973 1.56378
upperback 5.38666 -2.1023 -2.25514
thorax 6.0403 -0.912019 -3.35603
lowerneck -8.11725 -7.61942 -8.58578
upperneck 8.51921 -11.1872 16.59
head 5.35284 -4.93928 5.73038
rclavicle -1.0138e-014 0
rhumerus -29.7647 3.21077 -89.5815
rradius 35.8746
rwrist -2.25182
rhand -11.1808 -5.15082
rfingers 7.12502
rthumb 14.8463 -34.5989
lclavicle -1.0138e-014 0
lhumerus -8.0775 -12.6672 79.5
lradius 26.825
lwrist 8.79664
lhand -11.0602 -11.7165
lfingers 7.12502
lthumb 14.9625 17.723
rfemur -27.3073 1.94177 25.0099
rtibia 48.3801
rfoot -20.2604 -16.3593
rtoes -13.0533
lfemur -6.5893 12.3863 -18.5778
ltibia 32.67
lfoot -25.6926 5.45282
ltoes -4.6784
